<?xml version="1.0" encoding="UTF-8" standalone="no"?><!DOCTYPE svg PUBLIC "-//W3C//DTD SVG 1.1//EN" "http://www.w3.org/Graphics/SVG/1.1/DTD/svg11.dtd"><svg width="1024px" height="1024px" version="1.1" xmlns="http://www.w3.org/2000/svg" xmlns:xlink="http://www.w3.org/1999/xlink" xml:space="preserve" xmlns:serif="http://www.serif.com/" style="fill-rule:evenodd;clip-rule:evenodd;stroke-linejoin:round;stroke-miterlimit:2;"><rect x="0" y="0" width="1024" height="1024" style="fill:rgb(76,1,87);"/><path d="M145.872,960C136.539,960 129.109,957.293 123.584,951.88C118.059,946.467 115.296,938.571 115.296,928.192L115.296,910.272C115.296,899.893 118.059,891.997 123.584,886.584C129.109,881.171 136.539,878.464 145.872,878.464C155.131,878.464 162.243,881.04 167.208,886.192C172.173,891.344 174.656,898.4 174.656,907.36L174.656,907.92L165.36,907.92L165.36,907.024C165.36,901.125 163.773,896.291 160.6,892.52C157.427,888.749 152.517,886.864 145.872,886.864C139.227,886.864 134.037,888.899 130.304,892.968C126.571,897.037 124.704,902.731 124.704,910.048L124.704,928.416C124.704,935.733 126.571,941.427 130.304,945.496C134.037,949.565 139.227,951.6 145.872,951.6C152.517,951.6 157.427,949.715 160.6,945.944C163.773,942.173 165.36,937.339 165.36,931.44L165.36,929.648L174.656,929.648L174.656,931.104C174.656,940.064 172.173,947.12 167.208,952.272C162.243,957.424 155.131,960 145.872,960Z" style="fill:white;fill-rule:nonzero;"/><path d="M223.488,960C214.155,960 206.707,957.293 201.144,951.88C195.581,946.467 192.8,938.571 192.8,928.192L192.8,910.272C192.8,899.893 195.581,891.997 201.144,886.584C206.707,881.171 214.155,878.464 223.488,878.464C232.896,878.464 240.381,881.171 245.944,886.584C251.507,891.997 254.288,899.893 254.288,910.272L254.288,928.192C254.288,938.571 251.507,946.467 245.944,951.88C240.381,957.293 232.896,960 223.488,960ZM223.488,951.6C230.283,951.6 235.547,949.565 239.28,945.496C243.013,941.427 244.88,935.771 244.88,928.528L244.88,909.936C244.88,902.693 243.013,897.037 239.28,892.968C235.547,888.899 230.283,886.864 223.488,886.864C216.768,886.864 211.541,888.899 207.808,892.968C204.075,897.037 202.208,902.693 202.208,909.936L202.208,928.528C202.208,935.771 204.075,941.427 207.808,945.496C211.541,949.565 216.768,951.6 223.488,951.6Z" style="fill:white;fill-rule:nonzero;"/><path d="M275.568,958.432L275.568,880.032L307.264,880.032C312.117,880.032 316.392,880.872 320.088,882.552C323.784,884.232 326.677,886.621 328.768,889.72C330.859,892.819 331.904,896.533 331.904,900.864L331.904,902.096C331.904,907.248 330.672,911.317 328.208,914.304C325.744,917.291 322.832,919.307 319.472,920.352L319.472,921.92C322.16,921.995 324.381,922.872 326.136,924.552C327.891,926.232 328.768,928.752 328.768,932.112L328.768,958.432L319.472,958.432L319.472,933.232C319.472,930.992 318.856,929.275 317.624,928.08C316.392,926.885 314.544,926.288 312.08,926.288L284.976,926.288L284.976,958.432L275.568,958.432ZM284.976,917.776L306.368,917.776C311.52,917.776 315.496,916.525 318.296,914.024C321.096,911.523 322.496,908.032 322.496,903.552L322.496,902.768C322.496,898.288 321.115,894.797 318.352,892.296C315.589,889.795 311.595,888.544 306.368,888.544L284.976,888.544L284.976,917.776Z" style="fill:white;fill-rule:nonzero;"/><path d="M351.84,958.432L351.84,880.032L400.112,880.032L400.112,888.544L361.248,888.544L361.248,914.752L396.976,914.752L396.976,923.264L361.248,923.264L361.248,949.92L400.672,949.92L400.672,958.432L351.84,958.432Z" style="fill:white;fill-rule:nonzero;"/><path d="M414.336,958.432L438.528,880.032L455.104,880.032L479.296,958.432L469.552,958.432L463.504,938.608L430.128,938.608L424.08,958.432L414.336,958.432ZM432.48,930.096L461.04,930.096L447.6,885.744L446.032,885.744L432.48,930.096Z" style="fill:white;fill-rule:nonzero;"/><path d="M523.872,960C514.539,960 507.109,957.293 501.584,951.88C496.059,946.467 493.296,938.571 493.296,928.192L493.296,910.272C493.296,899.893 496.059,891.997 501.584,886.584C507.109,881.171 514.539,878.464 523.872,878.464C533.131,878.464 540.243,881.04 545.208,886.192C550.173,891.344 552.656,898.4 552.656,907.36L552.656,907.92L543.36,907.92L543.36,907.024C543.36,901.125 541.773,896.291 538.6,892.52C535.427,888.749 530.517,886.864 523.872,886.864C517.227,886.864 512.037,888.899 508.304,892.968C504.571,897.037 502.704,902.731 502.704,910.048L502.704,928.416C502.704,935.733 504.571,941.427 508.304,945.496C512.037,949.565 517.227,951.6 523.872,951.6C530.517,951.6 535.427,949.715 538.6,945.944C541.773,942.173 543.36,937.339 543.36,931.44L543.36,929.648L552.656,929.648L552.656,931.104C552.656,940.064 550.173,947.12 545.208,952.272C540.243,957.424 533.131,960 523.872,960Z" style="fill:white;fill-rule:nonzero;"/><path d="M590.4,958.432L590.4,888.544L565.2,888.544L565.2,880.032L625.008,880.032L625.008,888.544L599.808,888.544L599.808,958.432L590.4,958.432Z" style="fill:white;fill-rule:nonzero;"/><rect x="642.592" y="880.032" width="9.408" height="78.4" style="fill:white;fill-rule:nonzero;"/><path d="M692.992,958.432L669.36,880.032L679.104,880.032L700.496,952.72L701.952,952.72L723.344,880.032L733.088,880.032L709.456,958.432L692.992,958.432Z" style="fill:white;fill-rule:nonzero;"/><rect x="750.448" y="880.032" width="9.408" height="78.4" style="fill:white;fill-rule:nonzero;"/><path d="M802.64,958.432L802.64,888.544L777.44,888.544L777.44,880.032L837.248,880.032L837.248,888.544L812.048,888.544L812.048,958.432L802.64,958.432Z" style="fill:white;fill-rule:nonzero;"/><path d="M875.328,958.432L875.328,928.528L847.44,880.032L858.192,880.032L879.248,917.664L880.816,917.664L901.872,880.032L912.624,880.032L884.736,928.528L884.736,958.432L875.328,958.432Z" style="fill:white;fill-rule:nonzero;"/><path d="M152.679,628.244L152.679,120.404C152.679,89.262 177.962,63.978 209.105,63.978L752.853,63.978C783.995,63.978 809.28,89.262 809.28,120.404L809.28,386.043C802.016,386.038 794.842,389.236 790.042,395.366L781.92,405.735L781.92,120.404C781.92,104.361 768.896,91.336 752.853,91.336L209.105,91.336C193.062,91.336 180.036,104.361 180.036,120.404L180.036,160.587L598.962,160.587L598.962,187.946L180.036,187.946L180.036,600.886L378.793,600.886L378.793,628.244L152.679,628.244ZM206.54,140.496L206.54,113.137L296.31,113.137L296.31,140.496L206.54,140.496ZM334.783,140.496L334.783,113.137L398.904,113.137L398.904,140.496L334.783,140.496ZM437.377,140.496L437.377,113.137L475.849,113.137L475.849,140.496L437.377,140.496ZM431.79,439.854L431.79,657.626C431.79,668.108 440.301,676.62 450.784,676.62L617.938,676.62L617.938,703.978L450.784,703.978C425.201,703.978 404.431,683.208 404.431,657.626L404.431,373.51C404.431,347.928 425.201,327.158 450.784,327.158L466.463,327.158L466.463,299.167C466.463,291.612 472.588,285.488 480.143,285.488L533.178,285.488C540.732,285.488 546.857,291.612 546.857,299.167L546.857,327.158L616.571,327.158L616.571,299.167C616.571,291.612 622.696,285.488 630.251,285.488L683.285,285.488C690.84,285.488 696.965,291.612 696.965,299.167L696.965,327.158L712.171,327.158C737.752,327.158 758.522,347.928 758.522,373.51L758.522,412.496L758.599,412.496L758.599,439.854L431.79,439.854ZM731.165,412.496L731.165,373.51C731.165,363.027 722.653,354.516 712.171,354.516L683.285,354.516C675.73,354.516 669.606,348.392 669.606,340.838L669.606,312.846L643.929,312.846L643.929,340.838C643.929,348.392 637.805,354.516 630.251,354.516L533.178,354.516C525.623,354.516 519.498,348.392 519.498,340.838L519.498,312.846L493.822,312.846L493.822,340.838C493.822,348.392 487.698,354.516 480.143,354.516L450.784,354.516C440.301,354.516 431.79,363.027 431.79,373.51L431.79,412.496L731.165,412.496ZM460.728,492.786C453.179,492.786 447.049,486.656 447.049,479.106C447.049,471.556 453.179,465.428 460.728,465.428L706.015,465.428C713.565,465.428 719.693,471.556 719.693,479.106C719.693,486.656 713.565,492.786 706.015,492.786L460.728,492.786ZM460.728,645.642C453.179,645.642 447.049,639.512 447.049,631.962C447.049,624.412 453.179,618.282 460.728,618.282L513.763,618.282C521.313,618.282 527.443,624.412 527.443,631.962C527.443,639.512 521.313,645.642 513.763,645.642L460.728,645.642ZM460.728,544.307C453.179,544.307 447.049,538.177 447.049,530.627C447.049,523.078 453.179,516.948 460.728,516.948L552.592,516.948C560.142,516.948 566.272,523.078 566.272,530.627C566.272,538.177 560.142,544.307 552.592,544.307L460.728,544.307ZM460.728,595.447C453.179,595.447 447.049,589.318 447.049,581.768C447.049,574.218 453.179,568.09 460.728,568.09L601.838,568.09C609.388,568.09 615.518,574.218 615.518,581.768C615.518,589.318 609.388,595.447 601.838,595.447L460.728,595.447ZM591.421,544.307C583.872,544.307 577.742,538.177 577.742,530.627C577.742,523.078 583.872,516.948 591.421,516.948L666.238,516.948C673.788,516.948 679.918,523.078 679.918,530.627C679.918,538.177 673.788,544.307 666.238,544.307L591.421,544.307ZM871.928,480.414L740.913,647.697C739.832,649.077 738.495,650.236 736.976,651.112L650.64,700.894C645.808,703.68 639.765,703.253 635.373,699.812C630.98,696.373 629.118,690.61 630.665,685.249L658.307,589.5C658.795,587.815 659.6,586.24 660.681,584.86L791.696,417.577C804.649,401.038 828.679,398.134 845.334,411.177L865.289,426.806C881.943,439.85 884.881,463.876 871.928,480.414ZM782.864,473.224L683.856,599.638L666.357,660.251L721.012,628.738L820.019,502.323L782.864,473.224ZM836.888,480.785L850.389,463.545C854.064,458.853 853.145,452.047 848.42,448.346L828.465,432.716C823.739,429.015 816.91,429.753 813.234,434.446L799.733,451.685L836.888,480.785ZM334.558,591.054C337.354,584.837 339.567,578.363 341.163,571.716L343.329,562.697L374.448,558.199C375.137,550.195 375.137,542.145 374.448,534.139L343.329,529.641L341.163,520.622C338.482,509.456 334.061,498.781 328.06,488.99L323.214,481.082L342.039,455.897C336.865,449.749 331.174,444.056 325.025,438.883L299.841,457.707L291.932,452.861C282.14,446.862 271.466,442.44 260.3,439.759L251.282,437.594L246.784,406.475C238.778,405.785 230.728,405.785 222.723,406.475L218.224,437.594L209.206,439.759C202.558,441.355 196.085,443.569 189.869,446.364L189.869,431.531C195.119,429.474 200.513,427.778 206.013,426.457L210.679,394.172C226.629,391.647 242.878,391.647 258.827,394.172L263.493,426.457C276.055,429.474 288.064,434.448 299.079,441.199L325.208,421.669C338.272,431.161 349.761,442.649 359.254,455.715L339.724,481.843C346.475,492.857 351.448,504.867 354.464,517.429L386.749,522.095C389.275,538.045 389.275,554.293 386.749,570.243L354.464,574.909C353.144,580.409 351.448,585.802 349.392,591.054L334.558,591.054ZM234.754,501.711C259.29,501.711 279.21,521.632 279.21,546.169C279.21,570.706 259.29,590.627 234.754,590.627C210.217,590.627 190.296,570.706 190.296,546.169C190.296,521.632 210.217,501.711 234.754,501.711ZM234.754,515.391C217.767,515.391 203.975,529.182 203.975,546.169C203.975,563.156 217.767,576.947 234.754,576.947C251.741,576.947 265.532,563.156 265.532,546.169C265.532,529.182 251.741,515.391 234.754,515.391Z" style="fill:white;fill-rule:nonzero;"/></svg>